<mxfile host="Electron" agent="Mozilla/5.0 (X11; Linux x86_64) AppleWebKit/537.36 (KHTML, like Gecko) draw.io/24.7.17 Chrome/132.0.6834.210 Electron/34.4.1 Safari/537.36" version="24.7.17">
  <diagram id="Z4zx1xbXpbFYWwnjL9Qc" name="DFD">
    <mxGraphModel dx="1754" dy="1471" grid="1" gridSize="10" guides="1" tooltips="1" connect="1" arrows="1" fold="1" page="1" pageScale="1" pageWidth="850" pageHeight="1100" math="0" shadow="0">
      <root>
        <mxCell id="0" />
        <mxCell id="1" parent="0" />
        <mxCell id="AKhO0LFCwdaKw_T-P-7f-14" value="Регистрация пациента" style="shape=umlFrame;whiteSpace=wrap;html=1;pointerEvents=0;width=100;height=50;" vertex="1" parent="1">
          <mxGeometry x="250" y="40" width="1380" height="240" as="geometry" />
        </mxCell>
        <mxCell id="3" value="&lt;span style=&quot;text-align: left;&quot;&gt;&#x9;&lt;/span&gt;&lt;span style=&quot;text-align: left;&quot;&gt;&amp;nbsp;Хранилище&lt;/span&gt;" style="html=1;dashed=0;whitespace=wrap;shape=partialRectangle;right=0;" parent="1" vertex="1">
          <mxGeometry x="40" y="100" width="100" height="30" as="geometry" />
        </mxCell>
        <mxCell id="5" value="Процесс" style="html=1;dashed=0;whitespace=wrap;" parent="1" vertex="1">
          <mxGeometry x="40" y="40" width="100" height="50" as="geometry" />
        </mxCell>
        <mxCell id="AKhO0LFCwdaKw_T-P-7f-13" value="Сущность" style="html=1;dashed=0;whiteSpace=wrap;shape=mxgraph.dfd.start" vertex="1" parent="1">
          <mxGeometry x="40" y="150" width="100" height="30" as="geometry" />
        </mxCell>
        <mxCell id="AKhO0LFCwdaKw_T-P-7f-17" style="edgeStyle=orthogonalEdgeStyle;rounded=0;orthogonalLoop=1;jettySize=auto;html=1;entryX=0;entryY=0.5;entryDx=0;entryDy=0;" edge="1" parent="1" source="AKhO0LFCwdaKw_T-P-7f-15" target="AKhO0LFCwdaKw_T-P-7f-16">
          <mxGeometry relative="1" as="geometry" />
        </mxCell>
        <mxCell id="AKhO0LFCwdaKw_T-P-7f-18" value="Персональные данные" style="edgeLabel;html=1;align=center;verticalAlign=middle;resizable=0;points=[];" vertex="1" connectable="0" parent="AKhO0LFCwdaKw_T-P-7f-17">
          <mxGeometry x="-0.1375" y="3" relative="1" as="geometry">
            <mxPoint x="5" y="-12" as="offset" />
          </mxGeometry>
        </mxCell>
        <mxCell id="AKhO0LFCwdaKw_T-P-7f-15" value="Пациент" style="html=1;dashed=0;whiteSpace=wrap;shape=mxgraph.dfd.start" vertex="1" parent="1">
          <mxGeometry x="280" y="120" width="100" height="30" as="geometry" />
        </mxCell>
        <mxCell id="AKhO0LFCwdaKw_T-P-7f-16" value="Заполение анкеты" style="html=1;dashed=0;whitespace=wrap;" vertex="1" parent="1">
          <mxGeometry x="530" y="110" width="140" height="50" as="geometry" />
        </mxCell>
        <mxCell id="AKhO0LFCwdaKw_T-P-7f-26" style="edgeStyle=orthogonalEdgeStyle;rounded=0;orthogonalLoop=1;jettySize=auto;html=1;entryX=0;entryY=0.5;entryDx=0;entryDy=0;" edge="1" parent="1" source="AKhO0LFCwdaKw_T-P-7f-19" target="AKhO0LFCwdaKw_T-P-7f-25">
          <mxGeometry relative="1" as="geometry">
            <Array as="points">
              <mxPoint x="1110" y="135" />
            </Array>
          </mxGeometry>
        </mxCell>
        <mxCell id="AKhO0LFCwdaKw_T-P-7f-19" value="Регистратор" style="html=1;dashed=0;whiteSpace=wrap;shape=mxgraph.dfd.start" vertex="1" parent="1">
          <mxGeometry x="800" y="120" width="100" height="30" as="geometry" />
        </mxCell>
        <mxCell id="AKhO0LFCwdaKw_T-P-7f-20" style="edgeStyle=orthogonalEdgeStyle;rounded=0;orthogonalLoop=1;jettySize=auto;html=1;entryX=0;entryY=0.5;entryDx=0;entryDy=0;entryPerimeter=0;" edge="1" parent="1" source="AKhO0LFCwdaKw_T-P-7f-16" target="AKhO0LFCwdaKw_T-P-7f-19">
          <mxGeometry relative="1" as="geometry" />
        </mxCell>
        <mxCell id="AKhO0LFCwdaKw_T-P-7f-21" value="&lt;span style=&quot;color: rgba(0, 0, 0, 0); font-family: monospace; font-size: 0px; text-align: start; background-color: rgb(251, 251, 251);&quot;&gt;%3CmxGraphModel%3E%3Croot%3E%3CmxCell%20id%3D%220%22%2F%3E%3CmxCell%20id%3D%221%22%20parent%3D%220%22%2F%3E%3CmxCell%20id%3D%222%22%20value%3D%22%D0%9F%D0%B5%D1%80%D1%81%D0%BE%D0%BD%D0%B0%D0%BB%D1%8C%D0%BD%D1%8B%D0%B5%20%D0%B4%D0%B0%D0%BD%D0%BD%D1%8B%D0%B5%22%20style%3D%22edgeLabel%3Bhtml%3D1%3Balign%3Dcenter%3BverticalAlign%3Dmiddle%3Bresizable%3D0%3Bpoints%3D%5B%5D%3B%22%20vertex%3D%221%22%20connectable%3D%220%22%20parent%3D%221%22%3E%3CmxGeometry%20x%3D%22449.7058823529412%22%20y%3D%22120%22%20as%3D%22geometry%22%2F%3E%3C%2FmxCell%3E%3C%2Froot%3E%3C%2FmxGraphModel%3E&lt;/span&gt;" style="edgeLabel;html=1;align=center;verticalAlign=middle;resizable=0;points=[];" vertex="1" connectable="0" parent="AKhO0LFCwdaKw_T-P-7f-20">
          <mxGeometry x="-0.0443" relative="1" as="geometry">
            <mxPoint as="offset" />
          </mxGeometry>
        </mxCell>
        <mxCell id="AKhO0LFCwdaKw_T-P-7f-22" value="Персональные данные" style="edgeLabel;html=1;align=center;verticalAlign=middle;resizable=0;points=[];" vertex="1" connectable="0" parent="AKhO0LFCwdaKw_T-P-7f-20">
          <mxGeometry x="-0.0081" y="-1" relative="1" as="geometry">
            <mxPoint y="-16" as="offset" />
          </mxGeometry>
        </mxCell>
        <mxCell id="AKhO0LFCwdaKw_T-P-7f-29" style="edgeStyle=orthogonalEdgeStyle;rounded=0;orthogonalLoop=1;jettySize=auto;html=1;entryX=0;entryY=0.5;entryDx=0;entryDy=0;" edge="1" parent="1" source="AKhO0LFCwdaKw_T-P-7f-25" target="AKhO0LFCwdaKw_T-P-7f-28">
          <mxGeometry relative="1" as="geometry" />
        </mxCell>
        <mxCell id="AKhO0LFCwdaKw_T-P-7f-31" style="edgeStyle=orthogonalEdgeStyle;rounded=0;orthogonalLoop=1;jettySize=auto;html=1;entryX=0;entryY=0.5;entryDx=0;entryDy=0;" edge="1" parent="1" source="AKhO0LFCwdaKw_T-P-7f-25" target="AKhO0LFCwdaKw_T-P-7f-30">
          <mxGeometry relative="1" as="geometry" />
        </mxCell>
        <mxCell id="AKhO0LFCwdaKw_T-P-7f-25" value="Регистрация пациента в системе" style="html=1;dashed=0;whitespace=wrap;" vertex="1" parent="1">
          <mxGeometry x="1110" y="110" width="210" height="50" as="geometry" />
        </mxCell>
        <mxCell id="AKhO0LFCwdaKw_T-P-7f-27" value="Персональные данные" style="edgeLabel;html=1;align=center;verticalAlign=middle;resizable=0;points=[];" vertex="1" connectable="0" parent="1">
          <mxGeometry x="1079.9957142857145" y="65" as="geometry">
            <mxPoint x="-84" y="51" as="offset" />
          </mxGeometry>
        </mxCell>
        <mxCell id="AKhO0LFCwdaKw_T-P-7f-28" value="&lt;span style=&quot;text-align: left;&quot;&gt;&#x9;&lt;/span&gt;&lt;span style=&quot;text-align: left;&quot;&gt;Excel-файл со списком пациентов&lt;/span&gt;" style="html=1;dashed=0;whitespace=wrap;shape=partialRectangle;right=0;" vertex="1" parent="1">
          <mxGeometry x="1370" y="180" width="220" height="30" as="geometry" />
        </mxCell>
        <mxCell id="AKhO0LFCwdaKw_T-P-7f-30" value="&lt;span style=&quot;text-align: left;&quot;&gt;&#x9;&lt;/span&gt;&lt;span style=&quot;text-align: left;&quot;&gt;Папка с данными о пациенте&lt;/span&gt;" style="html=1;dashed=0;whitespace=wrap;shape=partialRectangle;right=0;" vertex="1" parent="1">
          <mxGeometry x="1370" y="60" width="220" height="30" as="geometry" />
        </mxCell>
        <mxCell id="AKhO0LFCwdaKw_T-P-7f-48" value="Запись на прием" style="shape=umlFrame;whiteSpace=wrap;html=1;pointerEvents=0;width=100;height=50;" vertex="1" parent="1">
          <mxGeometry x="250" y="310" width="730" height="380" as="geometry" />
        </mxCell>
        <mxCell id="AKhO0LFCwdaKw_T-P-7f-49" style="edgeStyle=orthogonalEdgeStyle;rounded=0;orthogonalLoop=1;jettySize=auto;html=1;entryX=0;entryY=0.5;entryDx=0;entryDy=0;entryPerimeter=0;" edge="1" parent="1" source="AKhO0LFCwdaKw_T-P-7f-51" target="AKhO0LFCwdaKw_T-P-7f-54">
          <mxGeometry relative="1" as="geometry">
            <mxPoint x="530" y="405" as="targetPoint" />
          </mxGeometry>
        </mxCell>
        <mxCell id="AKhO0LFCwdaKw_T-P-7f-50" value="ФИО" style="edgeLabel;html=1;align=center;verticalAlign=middle;resizable=0;points=[];" vertex="1" connectable="0" parent="AKhO0LFCwdaKw_T-P-7f-49">
          <mxGeometry x="-0.1375" y="3" relative="1" as="geometry">
            <mxPoint x="5" y="-12" as="offset" />
          </mxGeometry>
        </mxCell>
        <mxCell id="AKhO0LFCwdaKw_T-P-7f-51" value="Пациент" style="html=1;dashed=0;whiteSpace=wrap;shape=mxgraph.dfd.start" vertex="1" parent="1">
          <mxGeometry x="280" y="390" width="100" height="30" as="geometry" />
        </mxCell>
        <mxCell id="AKhO0LFCwdaKw_T-P-7f-66" style="edgeStyle=orthogonalEdgeStyle;rounded=0;orthogonalLoop=1;jettySize=auto;html=1;entryX=0;entryY=0.5;entryDx=0;entryDy=0;" edge="1" parent="1" source="AKhO0LFCwdaKw_T-P-7f-54" target="AKhO0LFCwdaKw_T-P-7f-60">
          <mxGeometry relative="1" as="geometry">
            <Array as="points">
              <mxPoint x="650" y="405" />
              <mxPoint x="650" y="355" />
            </Array>
          </mxGeometry>
        </mxCell>
        <mxCell id="AKhO0LFCwdaKw_T-P-7f-67" value="ФИО" style="edgeLabel;html=1;align=center;verticalAlign=middle;resizable=0;points=[];" vertex="1" connectable="0" parent="AKhO0LFCwdaKw_T-P-7f-66">
          <mxGeometry x="-0.1469" y="2" relative="1" as="geometry">
            <mxPoint x="-8" y="-51" as="offset" />
          </mxGeometry>
        </mxCell>
        <mxCell id="AKhO0LFCwdaKw_T-P-7f-75" style="edgeStyle=orthogonalEdgeStyle;rounded=0;orthogonalLoop=1;jettySize=auto;html=1;entryX=0;entryY=0.5;entryDx=0;entryDy=0;" edge="1" parent="1" source="AKhO0LFCwdaKw_T-P-7f-54" target="AKhO0LFCwdaKw_T-P-7f-74">
          <mxGeometry relative="1" as="geometry" />
        </mxCell>
        <mxCell id="AKhO0LFCwdaKw_T-P-7f-54" value="Регистратор" style="html=1;dashed=0;whiteSpace=wrap;shape=mxgraph.dfd.start" vertex="1" parent="1">
          <mxGeometry x="500" y="390" width="100" height="30" as="geometry" />
        </mxCell>
        <mxCell id="AKhO0LFCwdaKw_T-P-7f-72" style="edgeStyle=orthogonalEdgeStyle;rounded=0;orthogonalLoop=1;jettySize=auto;html=1;entryX=0.5;entryY=0;entryDx=0;entryDy=0;" edge="1" parent="1" source="AKhO0LFCwdaKw_T-P-7f-60" target="AKhO0LFCwdaKw_T-P-7f-62">
          <mxGeometry relative="1" as="geometry" />
        </mxCell>
        <mxCell id="AKhO0LFCwdaKw_T-P-7f-60" value="Поиск пациента в таблице" style="html=1;dashed=0;whitespace=wrap;" vertex="1" parent="1">
          <mxGeometry x="700" y="330" width="210" height="50" as="geometry" />
        </mxCell>
        <mxCell id="AKhO0LFCwdaKw_T-P-7f-62" value="&lt;span style=&quot;text-align: left;&quot;&gt;&#x9;&lt;/span&gt;&lt;span style=&quot;text-align: left;&quot;&gt;Excel-файл со списком пациентов&lt;/span&gt;" style="html=1;dashed=0;whitespace=wrap;shape=partialRectangle;right=0;" vertex="1" parent="1">
          <mxGeometry x="695" y="430" width="220" height="30" as="geometry" />
        </mxCell>
        <mxCell id="AKhO0LFCwdaKw_T-P-7f-64" value="Персональные данные" style="edgeLabel;html=1;align=center;verticalAlign=middle;resizable=0;points=[];" vertex="1" connectable="0" parent="1">
          <mxGeometry x="1499.9957142857145" y="75" as="geometry">
            <mxPoint x="-84" y="51" as="offset" />
          </mxGeometry>
        </mxCell>
        <mxCell id="AKhO0LFCwdaKw_T-P-7f-68" style="edgeStyle=orthogonalEdgeStyle;rounded=0;orthogonalLoop=1;jettySize=auto;html=1;entryX=0;entryY=0.5;entryDx=0;entryDy=0;" edge="1" parent="1">
          <mxGeometry relative="1" as="geometry">
            <mxPoint x="30" y="220" as="sourcePoint" />
            <mxPoint x="180" y="220" as="targetPoint" />
          </mxGeometry>
        </mxCell>
        <mxCell id="AKhO0LFCwdaKw_T-P-7f-69" value="Данные" style="edgeLabel;html=1;align=center;verticalAlign=middle;resizable=0;points=[];" vertex="1" connectable="0" parent="AKhO0LFCwdaKw_T-P-7f-68">
          <mxGeometry x="-0.1375" y="3" relative="1" as="geometry">
            <mxPoint x="5" y="-12" as="offset" />
          </mxGeometry>
        </mxCell>
        <mxCell id="AKhO0LFCwdaKw_T-P-7f-71" value="ФИО специалиста" style="edgeLabel;html=1;align=center;verticalAlign=middle;resizable=0;points=[];" vertex="1" connectable="0" parent="1">
          <mxGeometry x="450" y="420" as="geometry">
            <mxPoint x="1" y="3" as="offset" />
          </mxGeometry>
        </mxCell>
        <mxCell id="AKhO0LFCwdaKw_T-P-7f-73" value="ФИО" style="edgeLabel;html=1;align=center;verticalAlign=middle;resizable=0;points=[];" vertex="1" connectable="0" parent="1">
          <mxGeometry x="830" y="405.0000000000001" as="geometry" />
        </mxCell>
        <mxCell id="AKhO0LFCwdaKw_T-P-7f-77" style="edgeStyle=orthogonalEdgeStyle;rounded=0;orthogonalLoop=1;jettySize=auto;html=1;entryX=0.5;entryY=0;entryDx=0;entryDy=0;" edge="1" parent="1" source="AKhO0LFCwdaKw_T-P-7f-74" target="AKhO0LFCwdaKw_T-P-7f-76">
          <mxGeometry relative="1" as="geometry" />
        </mxCell>
        <mxCell id="AKhO0LFCwdaKw_T-P-7f-74" value="Согласование времени для врача" style="html=1;dashed=0;whitespace=wrap;" vertex="1" parent="1">
          <mxGeometry x="695" y="480" width="210" height="50" as="geometry" />
        </mxCell>
        <mxCell id="AKhO0LFCwdaKw_T-P-7f-76" value="&lt;span style=&quot;text-align: left;&quot;&gt;&#x9;&lt;/span&gt;&lt;span style=&quot;text-align: left;&quot;&gt;Excel-файл с записями на прием&lt;/span&gt;" style="html=1;dashed=0;whitespace=wrap;shape=partialRectangle;right=0;" vertex="1" parent="1">
          <mxGeometry x="690" y="580" width="220" height="30" as="geometry" />
        </mxCell>
        <mxCell id="AKhO0LFCwdaKw_T-P-7f-78" value="ФИО специалиста" style="edgeLabel;html=1;align=center;verticalAlign=middle;resizable=0;points=[];" vertex="1" connectable="0" parent="1">
          <mxGeometry x="630" y="520" as="geometry">
            <mxPoint x="1" y="3" as="offset" />
          </mxGeometry>
        </mxCell>
        <mxCell id="AKhO0LFCwdaKw_T-P-7f-79" value="Сдача анализов" style="shape=umlFrame;whiteSpace=wrap;html=1;pointerEvents=0;width=100;height=50;" vertex="1" parent="1">
          <mxGeometry x="250" y="710" width="810" height="380" as="geometry" />
        </mxCell>
        <mxCell id="AKhO0LFCwdaKw_T-P-7f-80" value="Денежный учет" style="shape=umlFrame;whiteSpace=wrap;html=1;pointerEvents=0;width=100;height=50;" vertex="1" parent="1">
          <mxGeometry x="1115" y="315" width="730" height="380" as="geometry" />
        </mxCell>
        <mxCell id="AKhO0LFCwdaKw_T-P-7f-84" style="edgeStyle=orthogonalEdgeStyle;rounded=0;orthogonalLoop=1;jettySize=auto;html=1;entryX=0;entryY=0.5;entryDx=0;entryDy=0;" edge="1" parent="1" source="AKhO0LFCwdaKw_T-P-7f-82" target="AKhO0LFCwdaKw_T-P-7f-83">
          <mxGeometry relative="1" as="geometry" />
        </mxCell>
        <mxCell id="AKhO0LFCwdaKw_T-P-7f-100" value="ФИО и тип анализа" style="edgeLabel;html=1;align=center;verticalAlign=middle;resizable=0;points=[];" vertex="1" connectable="0" parent="AKhO0LFCwdaKw_T-P-7f-84">
          <mxGeometry x="-0.1099" y="5" relative="1" as="geometry">
            <mxPoint y="-40" as="offset" />
          </mxGeometry>
        </mxCell>
        <mxCell id="AKhO0LFCwdaKw_T-P-7f-82" value="Пациент" style="html=1;dashed=0;whiteSpace=wrap;shape=mxgraph.dfd.start" vertex="1" parent="1">
          <mxGeometry x="280" y="800" width="100" height="30" as="geometry" />
        </mxCell>
        <mxCell id="AKhO0LFCwdaKw_T-P-7f-83" value="Сдача анализов" style="html=1;dashed=0;whitespace=wrap;" vertex="1" parent="1">
          <mxGeometry x="450" y="790" width="210" height="50" as="geometry" />
        </mxCell>
        <mxCell id="AKhO0LFCwdaKw_T-P-7f-88" style="edgeStyle=orthogonalEdgeStyle;rounded=0;orthogonalLoop=1;jettySize=auto;html=1;entryX=0.5;entryY=0;entryDx=0;entryDy=0;" edge="1" parent="1" source="AKhO0LFCwdaKw_T-P-7f-85" target="AKhO0LFCwdaKw_T-P-7f-87">
          <mxGeometry relative="1" as="geometry">
            <Array as="points">
              <mxPoint x="790" y="860" />
              <mxPoint x="380" y="860" />
            </Array>
          </mxGeometry>
        </mxCell>
        <mxCell id="AKhO0LFCwdaKw_T-P-7f-85" value="Медицинский специалист" style="html=1;dashed=0;whiteSpace=wrap;shape=mxgraph.dfd.start" vertex="1" parent="1">
          <mxGeometry x="740" y="800" width="100" height="30" as="geometry" />
        </mxCell>
        <mxCell id="AKhO0LFCwdaKw_T-P-7f-86" style="edgeStyle=orthogonalEdgeStyle;rounded=0;orthogonalLoop=1;jettySize=auto;html=1;entryX=0;entryY=0.5;entryDx=0;entryDy=0;entryPerimeter=0;" edge="1" parent="1" source="AKhO0LFCwdaKw_T-P-7f-83" target="AKhO0LFCwdaKw_T-P-7f-85">
          <mxGeometry relative="1" as="geometry" />
        </mxCell>
        <mxCell id="AKhO0LFCwdaKw_T-P-7f-101" value="Анализы и данные пациента" style="edgeLabel;html=1;align=center;verticalAlign=middle;resizable=0;points=[];" vertex="1" connectable="0" parent="AKhO0LFCwdaKw_T-P-7f-86">
          <mxGeometry x="0.0096" y="-1" relative="1" as="geometry">
            <mxPoint y="-46" as="offset" />
          </mxGeometry>
        </mxCell>
        <mxCell id="AKhO0LFCwdaKw_T-P-7f-87" value="Обезличивание данных" style="html=1;dashed=0;whitespace=wrap;" vertex="1" parent="1">
          <mxGeometry x="275" y="910" width="210" height="50" as="geometry" />
        </mxCell>
        <mxCell id="AKhO0LFCwdaKw_T-P-7f-90" style="edgeStyle=orthogonalEdgeStyle;rounded=0;orthogonalLoop=1;jettySize=auto;html=1;entryX=0;entryY=0.5;entryDx=0;entryDy=0;" edge="1" parent="1" source="AKhO0LFCwdaKw_T-P-7f-87" target="AKhO0LFCwdaKw_T-P-7f-91">
          <mxGeometry relative="1" as="geometry">
            <mxPoint x="555" y="934.9999999999998" as="targetPoint" />
          </mxGeometry>
        </mxCell>
        <mxCell id="AKhO0LFCwdaKw_T-P-7f-104" value="Анализы и id пациента" style="edgeLabel;html=1;align=center;verticalAlign=middle;resizable=0;points=[];" vertex="1" connectable="0" parent="AKhO0LFCwdaKw_T-P-7f-90">
          <mxGeometry x="0.2333" y="-2" relative="1" as="geometry">
            <mxPoint x="-1" y="-37" as="offset" />
          </mxGeometry>
        </mxCell>
        <mxCell id="AKhO0LFCwdaKw_T-P-7f-97" style="edgeStyle=orthogonalEdgeStyle;rounded=0;orthogonalLoop=1;jettySize=auto;html=1;entryX=0;entryY=0.5;entryDx=0;entryDy=0;" edge="1" parent="1" source="AKhO0LFCwdaKw_T-P-7f-91" target="AKhO0LFCwdaKw_T-P-7f-96">
          <mxGeometry relative="1" as="geometry" />
        </mxCell>
        <mxCell id="AKhO0LFCwdaKw_T-P-7f-91" value="Передача данных в лабораторию" style="html=1;dashed=0;whitespace=wrap;" vertex="1" parent="1">
          <mxGeometry x="545" y="910" width="210" height="50" as="geometry" />
        </mxCell>
        <mxCell id="AKhO0LFCwdaKw_T-P-7f-94" value="&lt;span style=&quot;text-align: left;&quot;&gt;&#x9;&lt;/span&gt;&lt;span style=&quot;text-align: left;&quot;&gt;Excel-файл с анализами&lt;/span&gt;" style="html=1;dashed=0;whitespace=wrap;shape=partialRectangle;right=0;" vertex="1" parent="1">
          <mxGeometry x="795" y="1010" width="220" height="30" as="geometry" />
        </mxCell>
        <mxCell id="AKhO0LFCwdaKw_T-P-7f-98" style="edgeStyle=orthogonalEdgeStyle;rounded=0;orthogonalLoop=1;jettySize=auto;html=1;entryX=0.5;entryY=0;entryDx=0;entryDy=0;" edge="1" parent="1" source="AKhO0LFCwdaKw_T-P-7f-96" target="AKhO0LFCwdaKw_T-P-7f-94">
          <mxGeometry relative="1" as="geometry" />
        </mxCell>
        <mxCell id="AKhO0LFCwdaKw_T-P-7f-96" value="Регистрация результатов" style="html=1;dashed=0;whitespace=wrap;" vertex="1" parent="1">
          <mxGeometry x="800" y="910" width="210" height="50" as="geometry" />
        </mxCell>
        <mxCell id="AKhO0LFCwdaKw_T-P-7f-103" value="Анализы и данные пациента" style="edgeLabel;html=1;align=center;verticalAlign=middle;resizable=0;points=[];" vertex="1" connectable="0" parent="1">
          <mxGeometry x="570.0007407407406" y="870" as="geometry" />
        </mxCell>
        <mxCell id="AKhO0LFCwdaKw_T-P-7f-105" value="Результаты анализов и id пациента" style="edgeLabel;html=1;align=center;verticalAlign=middle;resizable=0;points=[];" vertex="1" connectable="0" parent="1">
          <mxGeometry x="780" y="900" as="geometry" />
        </mxCell>
        <mxCell id="AKhO0LFCwdaKw_T-P-7f-106" value="Результаты анализов и id пациента" style="edgeLabel;html=1;align=center;verticalAlign=middle;resizable=0;points=[];" vertex="1" connectable="0" parent="1">
          <mxGeometry x="805" y="980" as="geometry" />
        </mxCell>
        <mxCell id="AKhO0LFCwdaKw_T-P-7f-110" style="edgeStyle=orthogonalEdgeStyle;rounded=0;orthogonalLoop=1;jettySize=auto;html=1;entryX=0;entryY=0.5;entryDx=0;entryDy=0;entryPerimeter=0;" edge="1" parent="1" source="AKhO0LFCwdaKw_T-P-7f-108" target="AKhO0LFCwdaKw_T-P-7f-112">
          <mxGeometry relative="1" as="geometry">
            <mxPoint x="1365" y="405" as="targetPoint" />
          </mxGeometry>
        </mxCell>
        <mxCell id="AKhO0LFCwdaKw_T-P-7f-111" value="Деньги" style="edgeLabel;html=1;align=center;verticalAlign=middle;resizable=0;points=[];" vertex="1" connectable="0" parent="AKhO0LFCwdaKw_T-P-7f-110">
          <mxGeometry x="-0.2664" y="3" relative="1" as="geometry">
            <mxPoint x="5" y="-12" as="offset" />
          </mxGeometry>
        </mxCell>
        <mxCell id="AKhO0LFCwdaKw_T-P-7f-117" value="Тип услуги" style="edgeLabel;html=1;align=center;verticalAlign=middle;resizable=0;points=[];" vertex="1" connectable="0" parent="AKhO0LFCwdaKw_T-P-7f-110">
          <mxGeometry x="-0.2735" y="2" relative="1" as="geometry">
            <mxPoint y="17" as="offset" />
          </mxGeometry>
        </mxCell>
        <mxCell id="AKhO0LFCwdaKw_T-P-7f-108" value="Пациент" style="html=1;dashed=0;whiteSpace=wrap;shape=mxgraph.dfd.start" vertex="1" parent="1">
          <mxGeometry x="1155" y="390" width="100" height="30" as="geometry" />
        </mxCell>
        <mxCell id="AKhO0LFCwdaKw_T-P-7f-116" style="edgeStyle=orthogonalEdgeStyle;rounded=0;orthogonalLoop=1;jettySize=auto;html=1;entryX=0;entryY=0.5;entryDx=0;entryDy=0;" edge="1" parent="1" source="AKhO0LFCwdaKw_T-P-7f-112" target="AKhO0LFCwdaKw_T-P-7f-114">
          <mxGeometry relative="1" as="geometry">
            <Array as="points" />
          </mxGeometry>
        </mxCell>
        <mxCell id="AKhO0LFCwdaKw_T-P-7f-112" value="Кассир" style="html=1;dashed=0;whiteSpace=wrap;shape=mxgraph.dfd.start" vertex="1" parent="1">
          <mxGeometry x="1345" y="390" width="100" height="30" as="geometry" />
        </mxCell>
        <mxCell id="AKhO0LFCwdaKw_T-P-7f-119" style="edgeStyle=orthogonalEdgeStyle;rounded=0;orthogonalLoop=1;jettySize=auto;html=1;entryX=0.5;entryY=0;entryDx=0;entryDy=0;" edge="1" parent="1" source="AKhO0LFCwdaKw_T-P-7f-114" target="AKhO0LFCwdaKw_T-P-7f-118">
          <mxGeometry relative="1" as="geometry" />
        </mxCell>
        <mxCell id="AKhO0LFCwdaKw_T-P-7f-123" value="ФИО пациента" style="edgeLabel;html=1;align=center;verticalAlign=middle;resizable=0;points=[];" vertex="1" connectable="0" parent="AKhO0LFCwdaKw_T-P-7f-119">
          <mxGeometry x="0.0035" relative="1" as="geometry">
            <mxPoint x="45" y="-1" as="offset" />
          </mxGeometry>
        </mxCell>
        <mxCell id="AKhO0LFCwdaKw_T-P-7f-114" value="Регистрация транзакции" style="html=1;dashed=0;whitespace=wrap;" vertex="1" parent="1">
          <mxGeometry x="1525" y="380" width="210" height="50" as="geometry" />
        </mxCell>
        <mxCell id="AKhO0LFCwdaKw_T-P-7f-118" value="&lt;span style=&quot;text-align: left;&quot;&gt;&#x9;&lt;/span&gt;&lt;span style=&quot;text-align: left;&quot;&gt;&amp;nbsp;Гросбух в 1С и Excel&lt;/span&gt;" style="html=1;dashed=0;whitespace=wrap;shape=partialRectangle;right=0;" vertex="1" parent="1">
          <mxGeometry x="1567.5" y="490" width="125" height="30" as="geometry" />
        </mxCell>
        <mxCell id="AKhO0LFCwdaKw_T-P-7f-120" value="Деньги" style="edgeLabel;html=1;align=center;verticalAlign=middle;resizable=0;points=[];" vertex="1" connectable="0" parent="1">
          <mxGeometry x="1485.0015789473682" y="390" as="geometry" />
        </mxCell>
        <mxCell id="AKhO0LFCwdaKw_T-P-7f-121" value="Тип услуги" style="edgeLabel;html=1;align=center;verticalAlign=middle;resizable=0;points=[];" vertex="1" connectable="0" parent="1">
          <mxGeometry x="1485.0015789473682" y="420" as="geometry" />
        </mxCell>
        <mxCell id="AKhO0LFCwdaKw_T-P-7f-122" value="Тип услуги" style="edgeLabel;html=1;align=center;verticalAlign=middle;resizable=0;points=[];" vertex="1" connectable="0" parent="1">
          <mxGeometry x="1595.0015789473682" y="460" as="geometry" />
        </mxCell>
        <mxCell id="AKhO0LFCwdaKw_T-P-7f-126" style="edgeStyle=orthogonalEdgeStyle;rounded=0;orthogonalLoop=1;jettySize=auto;html=1;entryX=0.5;entryY=1;entryDx=0;entryDy=0;" edge="1" parent="1" source="AKhO0LFCwdaKw_T-P-7f-124" target="AKhO0LFCwdaKw_T-P-7f-125">
          <mxGeometry relative="1" as="geometry" />
        </mxCell>
        <mxCell id="AKhO0LFCwdaKw_T-P-7f-128" value="Отправка информации о&amp;nbsp;ТМЦ" style="edgeLabel;html=1;align=center;verticalAlign=middle;resizable=0;points=[];" vertex="1" connectable="0" parent="AKhO0LFCwdaKw_T-P-7f-126">
          <mxGeometry x="0.1267" y="2" relative="1" as="geometry">
            <mxPoint x="92" y="8" as="offset" />
          </mxGeometry>
        </mxCell>
        <mxCell id="AKhO0LFCwdaKw_T-P-7f-124" value="&lt;span style=&quot;text-align: left;&quot;&gt;&#x9;&lt;/span&gt;&lt;span style=&quot;text-align: left;&quot;&gt;1С склад&lt;/span&gt;" style="html=1;dashed=0;whitespace=wrap;shape=partialRectangle;right=0;" vertex="1" parent="1">
          <mxGeometry x="1567.5" y="650" width="125" height="30" as="geometry" />
        </mxCell>
        <mxCell id="AKhO0LFCwdaKw_T-P-7f-127" style="edgeStyle=orthogonalEdgeStyle;rounded=0;orthogonalLoop=1;jettySize=auto;html=1;entryX=0.5;entryY=1;entryDx=0;entryDy=0;" edge="1" parent="1" source="AKhO0LFCwdaKw_T-P-7f-125" target="AKhO0LFCwdaKw_T-P-7f-118">
          <mxGeometry relative="1" as="geometry" />
        </mxCell>
        <mxCell id="AKhO0LFCwdaKw_T-P-7f-125" value="Добавление информации о&amp;nbsp;ТМЦ" style="html=1;dashed=0;whitespace=wrap;" vertex="1" parent="1">
          <mxGeometry x="1525" y="550" width="210" height="50" as="geometry" />
        </mxCell>
        <mxCell id="AKhO0LFCwdaKw_T-P-7f-132" style="edgeStyle=orthogonalEdgeStyle;rounded=0;orthogonalLoop=1;jettySize=auto;html=1;entryX=0;entryY=0.5;entryDx=0;entryDy=0;" edge="1" parent="1" source="AKhO0LFCwdaKw_T-P-7f-130" target="AKhO0LFCwdaKw_T-P-7f-131">
          <mxGeometry relative="1" as="geometry" />
        </mxCell>
        <mxCell id="AKhO0LFCwdaKw_T-P-7f-134" value="Данные о ТМЦ" style="edgeLabel;html=1;align=center;verticalAlign=middle;resizable=0;points=[];" vertex="1" connectable="0" parent="AKhO0LFCwdaKw_T-P-7f-132">
          <mxGeometry x="-0.04" y="2" relative="1" as="geometry">
            <mxPoint x="1" y="-33" as="offset" />
          </mxGeometry>
        </mxCell>
        <mxCell id="AKhO0LFCwdaKw_T-P-7f-130" value="Провизор" style="html=1;dashed=0;whiteSpace=wrap;shape=mxgraph.dfd.start" vertex="1" parent="1">
          <mxGeometry x="1150" y="630" width="100" height="30" as="geometry" />
        </mxCell>
        <mxCell id="AKhO0LFCwdaKw_T-P-7f-133" style="edgeStyle=orthogonalEdgeStyle;rounded=0;orthogonalLoop=1;jettySize=auto;html=1;entryX=0;entryY=0.5;entryDx=0;entryDy=0;" edge="1" parent="1" source="AKhO0LFCwdaKw_T-P-7f-131" target="AKhO0LFCwdaKw_T-P-7f-124">
          <mxGeometry relative="1" as="geometry" />
        </mxCell>
        <mxCell id="AKhO0LFCwdaKw_T-P-7f-131" value="Закупка оборудывания/лекарств&lt;div&gt;/&lt;span style=&quot;background-color: initial;&quot;&gt;расходников&lt;/span&gt;&lt;/div&gt;" style="html=1;dashed=0;whitespace=wrap;" vertex="1" parent="1">
          <mxGeometry x="1300" y="620" width="210" height="50" as="geometry" />
        </mxCell>
        <mxCell id="AKhO0LFCwdaKw_T-P-7f-135" value="Данные о ТМЦ" style="edgeLabel;html=1;align=center;verticalAlign=middle;resizable=0;points=[];" vertex="1" connectable="0" parent="1">
          <mxGeometry x="1550" y="630" as="geometry" />
        </mxCell>
        <mxCell id="AKhO0LFCwdaKw_T-P-7f-138" style="edgeStyle=orthogonalEdgeStyle;rounded=0;orthogonalLoop=1;jettySize=auto;html=1;" edge="1" parent="1" source="AKhO0LFCwdaKw_T-P-7f-136" target="AKhO0LFCwdaKw_T-P-7f-137">
          <mxGeometry relative="1" as="geometry" />
        </mxCell>
        <mxCell id="AKhO0LFCwdaKw_T-P-7f-136" value="Бухгалтер" style="html=1;dashed=0;whiteSpace=wrap;shape=mxgraph.dfd.start" vertex="1" parent="1">
          <mxGeometry x="1120" y="500" width="100" height="30" as="geometry" />
        </mxCell>
        <mxCell id="AKhO0LFCwdaKw_T-P-7f-139" style="edgeStyle=orthogonalEdgeStyle;rounded=0;orthogonalLoop=1;jettySize=auto;html=1;entryX=0;entryY=0.5;entryDx=0;entryDy=0;" edge="1" parent="1" source="AKhO0LFCwdaKw_T-P-7f-137" target="AKhO0LFCwdaKw_T-P-7f-118">
          <mxGeometry relative="1" as="geometry" />
        </mxCell>
        <mxCell id="AKhO0LFCwdaKw_T-P-7f-140" value="Финансовые&lt;div&gt;данные&lt;/div&gt;" style="edgeLabel;html=1;align=center;verticalAlign=middle;resizable=0;points=[];" vertex="1" connectable="0" parent="AKhO0LFCwdaKw_T-P-7f-139">
          <mxGeometry x="-0.089" relative="1" as="geometry">
            <mxPoint x="-14" y="-35" as="offset" />
          </mxGeometry>
        </mxCell>
        <mxCell id="AKhO0LFCwdaKw_T-P-7f-137" value="Процессинг платежей" style="html=1;dashed=0;whitespace=wrap;" vertex="1" parent="1">
          <mxGeometry x="1250" y="490" width="210" height="50" as="geometry" />
        </mxCell>
        <mxCell id="AKhO0LFCwdaKw_T-P-7f-141" value="Финансовые&lt;div&gt;данные&lt;/div&gt;" style="edgeLabel;html=1;align=center;verticalAlign=middle;resizable=0;points=[];" vertex="1" connectable="0" parent="1">
          <mxGeometry x="1220.0000000000002" y="470.00000000000017" as="geometry" />
        </mxCell>
      </root>
    </mxGraphModel>
  </diagram>
</mxfile>
